<svg version="1.2" xmlns="http://www.w3.org/2000/svg" viewBox="0 0 478 68" width="478" height="68">
	<style>
		.s0 { fill: #ffe492 } 
	</style>
	<path class="s0" d="m454.19 52.22q-0.99 0.03-1.97 0.08c-0.42 0.02-0.6-0.05-0.88-0.08q-0.15-0.03-0.28-0.03-0.99 0.03-1.97 0.08c-0.2 0.06-0.32 0.14-0.63 0.17-0.3 0.03-0.65 0.03-0.99 0.04q-0.66 0.03-1.32 0.05c-0.22 0.01-0.4 0.04-0.47 0.1-0.02 0.01 0.13 0.03 0.21 0.04q0.39 0.08 0.82 0.13c0.28 0.04 0.63-0.02 0.93 0.02 0.68 0.1 0.68 0.1 1.2 0.08q0.66-0.03 1.32-0.05 0.14 0 0.28 0.03c0.28 0.03 0.46 0.11 0.88 0.08q0.48-0.03 0.99-0.04c0.27 0.04 0.52 0.09 0.82 0.13q0.42 0.04 0.21 0.1-0.2 0.06-0.57 0.06-0.33 0.01-0.66 0.03-0.17 0.01-0.33 0.01c-0.42 0.02-0.42 0.02-1.19-0.08-0.3-0.04-0.64 0.02-0.93-0.02q-0.28-0.04-0.54-0.08c-0.09-0.01-0.21-0.02-0.31-0.01q-0.51 0.01-0.99 0.04c-0.23 0.01-0.36 0.05-0.33 0.1 0 0.01 0.16 0.04 0.26 0.04 0.21 0 0.44-0.02 0.64-0.01 0.21 0.01 0.41 0.04 0.56 0.08 0.3 0.07 0.64 0 0.93 0.02 0.3 0.02 0.55 0.08 0.84 0.12 0.07 0.01 0.21-0.01 0.32-0.01q0.49-0.02 0.98-0.04c0.28 0.05 0.57 0.09 0.82 0.14 0.45 0.09 0.93 0.12 1.51 0.08q0.51-0.04 0.91 0.04 0.4 0.08 0.92 0.04c0.31-0.01 0.63-0.05 0.95 0 0.7 0.09 0.7 0.1 1.53 0.06 0.24-0.01 0.43-0.02 0.62 0.02q0.26 0.04 0.54 0.09 0.49-0.02 0.99-0.04 0.62-0.03 0.75 0.09c0.07 0.05 0.09 0.1 0.24 0.14 0.17 0.04 0.36 0.04 0.62 0.02q0.36 0 0.51-0.08 0.07-0.03 0.19-0.06c0.06-0.02 0.15-0.04 0.21-0.04 0.1 0.01 0.23 0.03 0.27 0.05 0.33 0.18 0.33 0.18 0.66 0.24 0.37 0.06 0.75 0.11 1.08 0.18 0.31 0.06 0.61 0.03 0.93 0.03 0.25 0 0.41 0.04 0.39 0.08-0.01 0.02-0.1 0.05-0.18 0.06q-0.99 0.05-1.98 0.08-0.13-0.01-0.27-0.04c-0.19-0.03-0.36-0.07-0.56-0.08-0.2-0.01-0.43 0.02-0.66 0.03-0.21 0-0.45 0.02-0.65 0.01-0.2-0.01-0.36-0.05-0.55-0.08-0.09-0.02-0.21-0.04-0.28-0.03-0.49 0.04-0.85-0.01-1.2-0.08-0.07-0.01-0.2-0.02-0.29-0.02q-1.16 0.04-2.32 0.09c-0.31 0.01-0.57-0.04-0.63-0.13-0.04-0.05-0.1-0.1-0.11-0.15 0-0.1-0.36-0.15-0.63-0.13q-0.67 0.02-1.32 0.05-0.54 0.03-0.9-0.05c-0.28-0.07-0.6-0.05-0.92-0.04-0.24 0.02-0.31 0.07-0.29 0.19 0.01 0.11-0.1 0.14-0.54 0.16q-0.82 0.03-1.65 0.06-0.14-0.01-0.28-0.04c-0.18-0.02-0.35-0.07-0.55-0.08-0.2-0.01-0.44 0.02-0.66 0.03-0.22 0-0.45 0.03-0.65 0.02-0.2-0.02-0.37-0.06-0.55-0.09q-0.14-0.03-0.28-0.03-0.66 0.02-1.32 0.05c-0.5 0.02-0.5 0.02-1.2-0.08-0.32-0.04-0.64 0-0.96 0.01-0.33 0.01-0.64 0.02-0.9-0.04q-0.27-0.07-0.58-0.06-0.83 0.03-1.66 0.07c-0.09 0-0.22-0.01-0.29-0.02-0.35-0.07-0.7-0.12-1.2-0.08-0.42 0.02-0.89 0.03-1.31 0.05q-0.36 0.04-0.29 0.11c0.02 0.02 0.16 0.04 0.26 0.04 0.21 0 0.44-0.02 0.64-0.02 0.42 0.02 0.63 0.15 1.17 0.12q0.48-0.03 0.99-0.04 0.13 0.01 0.27 0.04c0.27 0.04 0.5 0.09 0.89 0.07q0.49-0.03 0.99-0.04c0.52-0.03 0.52-0.02 1.19 0.07 0.33 0.04 0.65 0.01 0.96 0q0.36-0.03 0.64-0.01c0.29 0.03 0.5 0.11 0.85 0.1q0.5-0.01 1-0.03 0.31-0.01 0.56 0.06 0.26 0.06 0.59 0.05 0.5-0.03 1-0.04 0.15 0 0.29 0.02 0.28 0.05 0.54 0.09 0.5-0.01 0.99-0.03c0.24-0.01 0.42-0.01 0.62 0.02 0.25 0.04 0.46 0.12 0.87 0.08 0.21-0.02 0.45-0.01 0.66-0.03 0.25-0.02 0.43-0.01 0.61 0.03 0.34 0.09 0.77 0.09 1.21 0.06 0.48-0.04 0.84 0 1.2 0.07 0.38 0.07 0.38 0.07 0.68 0.24 0.09 0.05 0.33 0.07 0.54 0.06q0.52-0.03 0.9 0.05c0.27 0.06 0.59 0.05 0.92 0.04 0.43-0.03 0.87-0.05 1.22 0.04q0.25 0.06 0.6 0.04 0.99-0.04 1.97-0.08c0.4-0.02 0.62 0.03 0.89 0.07 0.36 0.05 0.76 0.1 0.76 0.22 0 0.02 0.09 0.05 0.17 0.06q0.27 0.05 0.55 0.09c0.26 0.05 0.52 0.09 0.89 0.06q0.49-0.02 0.99-0.04 0.49-0.04 0.92 0.03 0.51 0.11 1.09 0.18c0.28 0.04 0.64-0.02 0.93 0.02q0.27 0.05 0.55 0.09c0.08 0.01 0.21 0 0.32 0q0.33-0.01 0.66-0.03 0.35-0.03 0.62 0.02 0.25 0.06 0.55 0.09c0.3 0.01 0.63-0.05 0.93 0.02q0.24 0.06 0.55 0.08c0.2 0.01 0.44-0.02 0.65-0.02 0.09 0 0.21 0.03 0.26 0.05 0.03 0.01-0.01 0.04-0.06 0.05q-0.1 0.04-0.23 0.05-0.99 0.04-1.99 0.08c-0.39 0.02-0.39 0.02-1.19-0.08q-0.27-0.03-0.62 0c-0.32 0.01-0.64 0.04-0.97 0.01-0.42-0.1-0.95-0.11-1.51-0.07q-0.36 0.03-0.63-0.01c-0.36-0.06-0.75-0.11-1.08-0.18-0.25-0.06-0.37-0.06-0.48 0.01q-0.06 0.04-0.06 0.07c0.04 0.08 0.12 0.15 0.16 0.23 0.01 0.02-0.04 0.05-0.07 0.07q-0.15 0.09-0.49 0.01-0.34-0.09-0.89-0.07c-0.32 0.03-0.66 0.02-0.98 0.05-0.5 0.03-0.85-0.02-1.2-0.08-0.07-0.02-0.2-0.02-0.3-0.02q-1.48 0.06-2.97 0.12-0.33 0.01-0.58-0.06-0.26-0.06-0.58-0.05-1.32 0.04-2.64 0.1-0.54 0.03-0.9-0.05c-0.19-0.04-0.36-0.05-0.59-0.05q-0.38 0-0.57 0.07-0.17 0.05 0.24 0.1 0.42 0.06 0.83 0.12 0.33-0.01 0.65-0.01 0.14 0.01 0.28 0.04c0.27 0.04 0.51 0.09 0.89 0.06q0.49-0.02 0.99-0.04c0.46-0.02 0.46-0.02 1.19 0.08q0.28 0.03 0.63 0.01c0.21-0.01 0.42 0.01 0.57 0.05 0.06 0.02 0.04 0.05-0.09 0.15 0.01 0.08 0.15 0.04 0.19-0.01 0.07-0.07-0.07-0.09-0.33-0.05q-0.29 0.05-0.24 0.1c0.03 0.02 0.16 0.04 0.38-0.04 0.59-0.09 1.04-0.1 1.47-0.13 0.25-0.01 0.41-0.01 0.61 0.03 0.24 0.05 0.48 0.1 0.88 0.08 0.42-0.03 0.88-0.04 1.31-0.06 0.4-0.02 0.61 0.05 0.87 0.08 0.3 0.05 0.64 0 0.92 0.02 0.3 0.03 0.51 0.1 0.85 0.11 0.49-0.04 0.81 0.03 1.18 0.08 0.3 0.04 0.64 0.01 0.95-0.01q0.53-0.03 0.9 0.05c0.28 0.07 0.6 0.05 0.92 0.04 0.74-0.04 0.77-0.04 1.21 0.04 0.31 0.06 0.61 0.04 0.93 0.03q0.4 0.06 0.83 0.12c0.07 0.01 0.21-0.01 0.32-0.01q0.5-0.02 0.99-0.04c0.22-0.01 0.45-0.03 0.66-0.02 0.2 0.01 0.36 0.05 0.54 0.08q0.28 0.04 0.55 0.09c0.26 0.04 0.52 0.08 0.89 0.06q0.49-0.03 0.99-0.04c0.42-0.02 0.41-0.02 1.19 0.07 0.42 0.05 0.86-0.01 1.28-0.01q0.34-0.01 0.57 0.05c0.06 0.02 0.04 0.05 0.06 0.08q-1.66 0.06-3.3 0.13c-0.42 0.02-0.64-0.03-0.86-0.08-0.38-0.07-0.87 0.04-1.23-0.06q-0.33-0.09-0.89-0.06-0.32 0.02-0.66 0.03c-0.56 0.04-1.07 0.04-1.52-0.07-0.16-0.03-0.38-0.05-0.54-0.09q-0.27-0.06-0.59-0.05-1.49 0.06-2.97 0.12-0.13 0.01-0.24 0.04-0.28 0.07 0.17 0.11 0.14 0.01 0.27 0.04c0.19 0.03 0.35 0.08 0.55 0.09 0.2 0.01 0.44-0.02 0.66-0.02 0.22-0.01 0.45-0.03 0.65-0.03 0.2 0.01 0.37 0.06 0.56 0.09q0.14 0.03 0.28 0.03 0.66-0.02 1.31-0.04c0.28 0.04 0.51 0.1 0.84 0.11q0.32 0 0.64 0c0.1 0 0.22 0.02 0.26 0.04 0.03 0.01-0.06 0.04-0.12 0.06-0.26 0.06-0.6 0.05-0.92 0.07q-0.51 0.04-0.91-0.05-0.26-0.06-0.58-0.05-0.83 0.03-1.65 0.06-0.16 0-0.3-0.02c-0.7-0.09-0.7-0.09-1.2-0.07-0.72 0.03-0.72 0.03-1.21-0.05q-0.15-0.04-0.28-0.05-1.16 0.04-2.31 0.09c-0.25 0.01-0.42 0.01-0.61-0.03q-0.25-0.05-0.55-0.08-0.32 0-0.65 0.03c-0.23 0-0.46 0.03-0.65 0.01q-0.3-0.03-0.55-0.08-0.26-0.04-0.62-0.02c-0.76 0.04-0.77 0.03-1.53-0.06q-0.14-0.02-0.29-0.02-0.83 0.03-1.66 0.06-0.33 0.01-0.57-0.05c-0.06-0.02-0.04-0.05-0.08-0.11-0.04-0.02 0.01 0.01 0.02 0.03 0.1 0 0.22 0 0.3-0.01q0.29-0.05 0.23-0.1c-0.03-0.02-0.16-0.04-0.23-0.04-0.15 0-0.28 0.03-0.32 0.12-0.42 0.05-0.87 0.06-1.3 0.09-0.25 0.01-0.41 0-0.61-0.04-0.25-0.04-0.49-0.09-0.89-0.07q-0.65 0.04-1.32 0.06c-0.51 0.03-0.73-0.11-1.16-0.11q-0.66 0.01-1.32 0.05c-0.39 0.02-0.39 0.02-1.19-0.08-0.29-0.04-0.64 0.02-0.93-0.02q-0.28-0.04-0.55-0.09c-0.08-0.01-0.2-0.01-0.3 0q-0.84 0.02-1.65 0.06c-0.61 0.04-1.07 0-1.51-0.09q-0.82 0.02-1.64 0.06c-0.39 0.02-0.62-0.03-0.89-0.07q-0.13-0.03-0.27-0.04-0.16 0-0.33 0.01-0.67 0.02-1.32 0.05c-0.53 0.04-0.73-0.09-1.14-0.1-0.27 0.08-0.42 0.18-0.96 0.19q-0.66 0.01-1.32 0.05-0.33 0.01-0.66 0.02-0.55 0.03-0.45 0.17 0.06 0.08 0.11 0.15c0.07 0.09-0.1 0.17-0.38 0.18q-1.16 0.05-2.32 0.09-0.31 0.01-0.57-0.06-0.26-0.06-0.58-0.05-1.16 0.05-2.32 0.09-0.14 0-0.29-0.02-0.28-0.05-0.55-0.09-0.66 0.02-1.31 0.04c-0.7 0.03-0.7 0.03-1.21-0.05q-0.14-0.04-0.28-0.04-0.49 0.01-0.99 0.03c-0.98 0.05-0.98 0.05-1.27 0-0.26-0.04-0.5-0.09-0.89-0.07q-0.65 0.04-1.32 0.05-0.49 0.02-0.98 0.03-0.14-0.01-0.28-0.04c-0.27-0.05-0.53-0.08-0.89-0.06q-0.33 0.02-0.66 0.03c-0.58 0.02-0.58 0.02-1.52-0.07q-0.15-0.02-0.3-0.01-1.16 0.04-2.32 0.08-0.15 0.01-0.3-0.01c-1.06-0.09-1.06-0.09-2.18-0.04-0.43 0.02-0.44 0.02-0.89-0.06-0.2-0.03-0.37-0.05-0.6-0.04q-1.33 0.05-2.64 0.11c-0.4 0.02-0.63-0.03-0.89-0.07q-0.15-0.03-0.28-0.04-1.32 0.05-2.64 0.1-0.13-0.01-0.28-0.04-0.26-0.06-0.55-0.08-0.32 0-0.66 0.02c-0.56 0.02-0.56 0.02-1.2-0.07q-0.14-0.02-0.29-0.02-1.33 0.04-2.64 0.1c-0.5 0.03-0.85-0.02-1.2-0.08-0.07-0.01-0.2-0.02-0.29-0.02q-1.49 0.06-2.98 0.12-0.32 0.01-0.58-0.06c-0.26-0.06-0.58-0.05-0.91-0.04-0.77 0.04-0.78 0.03-1.23-0.04q-0.13-0.03-0.28-0.04-0.15-0.01-0.31 0-0.66 0.02-1.32 0.05-0.67 0.02-1.33 0.05c-0.53 0.04-0.78-0.06-1.16-0.11q-0.83 0.03-1.65 0.07c-0.41 0.03-0.61-0.04-0.88-0.08q-0.15-0.03-0.28-0.03-1.5 0.05-2.98 0.12c-0.24 0.01-0.4-0.01-0.6-0.04-0.45-0.08-0.47-0.08-1.22-0.05-0.33 0.01-0.64 0.03-0.92-0.03q-0.37-0.09-0.9-0.06-0.66 0.04-1.33 0.06-0.66 0.03-1.32 0.05c-0.35 0.01-0.57-0.07-0.85-0.1q-0.14-0.02-0.3-0.01-0.67 0.02-1.33 0.05c-0.52 0.03-0.81-0.05-1.17-0.1-0.08-0.01-0.22 0-0.32 0q-1.16 0.05-2.31 0.09-0.42-0.06-0.84-0.12-0.66 0.03-1.32 0.05-0.51 0.02-0.99 0.04c-0.4 0.04-0.6-0.04-0.88-0.07q-0.14-0.03-0.28-0.04-0.83 0.03-1.66 0.07c-0.52 0.03-0.72-0.11-1.15-0.11q-0.67 0.01-1.32 0.05c-0.5 0.03-0.85-0.01-1.2-0.08-0.08-0.01-0.2-0.02-0.29-0.02q-0.83 0.03-1.66 0.07-0.15 0-0.3-0.02c-1.06-0.09-1.06-0.09-1.52-0.07q-0.49 0.02-0.99 0.04-0.16 0-0.3-0.02c-0.7-0.1-0.7-0.1-1.2-0.08q-0.66 0.03-1.32 0.05-0.41-0.06-0.83-0.12-0.83 0.03-1.65 0.07c-0.25 0.01-0.42 0.01-0.61-0.03-0.24-0.05-0.48-0.1-0.88-0.07-0.43 0.02-0.89 0.03-1.32 0.05-0.52 0.03-0.74-0.11-1.16-0.11q-0.67 0.01-1.32 0.06c-0.49 0.03-0.84-0.02-1.2-0.09-0.07-0.01-0.2-0.02-0.29-0.01q-1.82 0.07-3.64 0.14c-0.75 0.03-0.75 0.03-2.17-0.05q-0.16-0.01-0.31-0.01-0.67 0.02-1.32 0.05c-0.52 0.04-0.81-0.05-1.18-0.1-0.08-0.01-0.2 0-0.31 0q-0.5 0.02-1 0.04-0.66 0.03-1.32 0.06-0.41-0.06-0.83-0.12-0.83 0.02-1.65 0.06c-0.41 0.03-0.61-0.04-0.88-0.07q-0.15-0.03-0.28-0.04-1.5 0.05-2.98 0.12c-0.41 0.02-0.59-0.05-0.87-0.09q-0.15-0.02-0.29-0.02-0.99 0.03-1.98 0.07c-0.37 0.02-0.37 0.02-1.19-0.08q-0.15-0.01-0.3-0.01-3.14 0.12-6.28 0.24-0.32 0.01-0.57-0.05-0.27-0.07-0.59-0.06-1.32 0.05-2.64 0.11-0.53 0.02-0.9-0.06c-0.18-0.04-0.36-0.05-0.59-0.04q-0.66 0.03-1.32 0.05-0.66 0.03-1.32 0.05-0.67 0.02-1.33 0.06c-0.53 0.03-0.79-0.06-1.16-0.11q-0.99 0.04-1.98 0.07-1.32 0.06-2.64 0.11-0.13-0.01-0.28-0.04c-0.27-0.04-0.47-0.09-0.88-0.07q-2.97 0.12-5.95 0.24c-0.41 0.01-0.59-0.05-0.88-0.09q-0.14-0.02-0.28-0.03-1.66 0.07-3.31 0.13c-0.44 0.02-0.44 0.02-1.19-0.07q-0.15-0.02-0.3-0.02-2.15 0.08-4.3 0.16-0.32 0.01-0.58-0.05-0.26-0.06-0.58-0.06-1.98 0.08-3.96 0.16-0.53 0.03-0.9-0.05-0.26-0.06-0.59-0.05-2.98 0.12-5.95 0.24c-0.38 0.02-0.65-0.01-0.89-0.06-0.2-0.04-0.36-0.05-0.6-0.04-0.26 0.01-0.41 0.02-0.55 0.07-0.18 0.06-0.29 0.13-0.72 0.14q-0.67 0.01-1.32 0.05c-0.42 0.03-0.61-0.04-0.87-0.08-0.2-0.03-0.38-0.03-0.62-0.02-0.23 0.01-0.37 0.04-0.5 0.09-0.3 0.1-0.32 0.1-0.68 0.04-0.2-0.04-0.37-0.06-0.59-0.06q-1.32 0.05-2.64 0.11c-0.51 0.02-0.52 0.02-0.9-0.06q-0.27-0.06-0.58-0.04-3.64 0.14-7.28 0.29c-0.37 0.01-0.63-0.02-0.89-0.06q-0.13-0.03-0.28-0.05-0.15 0-0.32 0.01-2.65 0.1-5.29 0.21c-0.4 0.02-0.61-0.03-0.89-0.07q-0.13-0.03-0.27-0.04-0.16 0-0.33 0.01-2.65 0.1-5.29 0.21c-0.42 0.02-0.6-0.05-0.87-0.08q-0.15-0.03-0.28-0.03-0.83 0.03-1.66 0.06-1.98 0.08-3.97 0.16c-0.5 0.02-0.73-0.12-1.15-0.11q-0.83 0.02-1.66 0.06-0.66 0.03-1.32 0.06c-0.43 0.01-0.43 0.01-1.52-0.07q-0.15-0.02-0.3-0.02-2.32 0.09-4.63 0.19-0.52 0.02-0.9-0.05-0.26-0.06-0.59-0.05-3.47 0.13-6.94 0.27-0.15 0-0.29-0.02-0.28-0.05-0.55-0.09c-0.13 0.03-0.3 0.07-0.39 0.11q-0.17 0.07-0.53 0.08c-0.26 0.01-0.42 0-0.62-0.04-0.24-0.05-0.49-0.08-0.88-0.07q-3.64 0.15-7.28 0.29c-0.4 0.02-0.58-0.05-0.86-0.08q-0.15-0.02-0.29-0.03-1.49 0.06-2.98 0.12-4.14 0.16-8.27 0.33c-0.5 0.02-0.84-0.02-1.19-0.08-0.08-0.02-0.2-0.02-0.3-0.02q-5.79 0.23-11.57 0.46-0.32 0-0.57-0.06-0.27-0.06-0.59-0.05-2.64 0.1-5.28 0.21c-0.45 0.01-0.45 0.02-0.91-0.06q-0.15-0.03-0.27-0.04-0.23 0.02-0.4 0.1-0.16 0.07-0.52 0.08c-0.26 0.01-0.42 0.01-0.62-0.03-0.25-0.04-0.47-0.09-0.87-0.07q-7.61 0.3-15.21 0.61c-0.4 0.01-0.59-0.05-0.87-0.09q-0.14-0.02-0.29-0.03-0.17 0-0.33 0.02-12.4 0.49-24.8 0.98c-0.49 0.02-0.49 0.02-1.03 0.16q-0.1 0.03-0.24 0.04-3.8 0.15-7.61 0.3-1.65 0.07-3.3 0.13c-0.4 0.02-0.4 0.02-1.34 0.19q-0.12 0.02-0.26 0.03-6.61 0.26-13.23 0.52-0.54 0.02-0.79 0.12-0.16 0.08-0.48 0.09-4.62 0.19-9.26 0.37c-0.37 0.01-0.59 0.05-0.77 0.12q-0.08 0.03-0.2 0.06-0.13 0.02-0.3 0.02-3.96 0.16-7.94 0.32c-0.39 0.01-0.55 0.07-0.74 0.13-0.07 0.02-0.12 0.05-0.2 0.06q-0.15 0.01-0.32 0.02-3.31 0.13-6.61 0.26c-0.43-0.01-0.52 0.08-0.73 0.13q-0.1 0.04-0.21 0.06-0.15 0.01-0.33 0.01-2.64 0.11-5.3 0.21c-0.4 0.02-0.48 0.09-0.7 0.15q-0.11 0.03-0.24 0.05-1.65 0.07-3.3 0.13c-0.37 0.01-0.37 0.01-1.02 0.16q-0.11 0.03-0.25 0.05-2.47 0.1-4.96 0.19-0.31 0.02-0.47 0.1-0.15 0.08-0.47 0.09-1.98 0.09-3.97 0.16-0.54 0.02-0.76 0.12-0.17 0.08-0.5 0.09-1.98 0.08-3.98 0.15c-0.38 0.02-0.58 0.07-0.74 0.13-0.13 0.06-0.28 0.07-0.52 0.08q-3.64 0.14-7.27 0.29c-0.41 0.02-0.62-0.03-0.89-0.07-0.38-0.05-0.73-0.11-0.73-0.23-0.01-0.02-0.12-0.04-0.2-0.06-0.6-0.11-0.6-0.11-0.69-0.23q-0.09-0.12-0.16-0.23c-0.09-0.13-0.31-0.16-0.92-0.14q-0.33 0.02-0.66 0.03c-0.33 0.01-0.58-0.04-0.64-0.13q-0.05-0.08-0.11-0.15c0.34-0.02 0.33-0.02 0.92-0.2 0.24-0.08 0.24-0.08-0.23-0.16q-0.27-0.05-0.55-0.09-0.14-0.02-0.3-0.01-0.83 0.03-1.64 0.06c-0.89 0.04-0.89 0.04-1.78-0.12-0.08-0.01-0.19-0.03-0.18-0.05q0.13-0.08 0.48-0.09 0.5-0.01 0.99-0.03 0.33-0.02 0.66-0.03 0.32-0.09 0.61-0.18c0.31-0.09 0.31-0.09-0.11-0.16q-0.41-0.06-0.83-0.12-0.5 0.02-0.99 0.04c-0.41 0.02-0.58-0.01-0.69-0.11q-0.14-0.14 0.34-0.18c0.33-0.02 0.63-0.03 0.8-0.11q0.25-0.11 0.79-0.12 0.33 0 0.66-0.02c0.28-0.01 0.44-0.09 0.38-0.18-0.04-0.06-0.11-0.1-0.37-0.12-1.15-0.05-1.17-0.05-1.74-0.15q-0.09-0.02-0.08-0.05 0.06-0.05 0.19-0.06 1.15-0.06 2.3-0.09 0.39-0.01 0.53-0.08 0.18-0.12-0.17-0.2c-0.07-0.02-0.19-0.04-0.27-0.04q-1.32 0.05-2.64 0.09c-0.08 0.01-0.23-0.02-0.26-0.04q-0.09-0.06 0.26-0.1c0.31-0.02 0.63-0.03 0.83-0.1 0.29-0.11 0.64-0.21 0.96-0.32 0.05-0.02 0.14-0.05 0.12-0.06q-0.26-0.04-0.54-0.09c-0.29-0.05-0.29-0.13-0.23-0.2 0.06-0.06 0.26-0.08 0.5-0.08 0.11 0 0.24 0 0.33-0.01q0.35-0.06 0.19-0.11c-0.07-0.02-0.19-0.05-0.27-0.05q-2.15 0.08-4.29 0.17c-0.42 0.02-0.61-0.03-0.87-0.08-0.19-0.03-0.37-0.04-0.61-0.02-0.23 0.03-0.45 0.01-0.59-0.04q-0.18-0.06 0.63-0.11 0.16-0.01 0.28-0.03c0.78-0.17 0.78-0.17 1.31-0.19 0.52-0.02 0.52-0.03 0.79-0.12q0.2-0.06 0.39-0.12c0.05-0.02 0.13-0.05 0.1-0.06q-0.23-0.07-0.58-0.05c-0.52 0.03-1.14 0.01-1.41 0.16q-0.16 0.07-0.51 0.08-3.63 0.14-7.26 0.28c-0.4 0.02-0.58 0.07-0.73 0.14-0.13 0.05-0.28 0.06-0.53 0.07q-0.38 0.03-0.6-0.03-0.13-0.05 0.18-0.12c0.29-0.06 0.23-0.14 0.14-0.21-0.07-0.05-0.28-0.08-0.5-0.08-0.32 0.01-0.64 0.03-0.91-0.03q-0.26-0.05-0.54-0.09c-0.35-0.07-0.7-0.13-1.19-0.09-0.33-0.01-0.57-0.07-0.83-0.11-0.45-0.07-0.49-0.08-0.17-0.16 0.36-0.08 0.08-0.19 0.27-0.27 0.22-0.09 0.51-0.17 0.77-0.26q0.1-0.03 0.19-0.06-0.21-0.05-0.47-0.09-0.36-0.03-0.34-0.16c-0.05-0.01-0.03 0.03 0.02 0.03 0.06 0.01 0.21 0.01 0.28 0q0.29-0.05 0.24-0.11c-0.03-0.01-0.16-0.03-0.24-0.03-0.15 0-0.27 0.03-0.31 0.11q-1.13 0.09-2.3 0.13-0.13-0.01-0.27-0.05c-0.31-0.05-0.31-0.05-1.21-0.06-0.1 0-0.22-0.02-0.27-0.04-0.2-0.1-0.19-0.2-0.28-0.3q0.25-0.1 0.52-0.19c0.36-0.13 0.83-0.24 1.11-0.38-0.07-0.08-0.15-0.15 0.15-0.22 0.83-0.07 0.82-0.07 1.05-0.15q0.96-0.31 1.96-0.63c0.18-0.05 0.18-0.08-0.15-0.1q-0.15-0.01-0.31-0.01-0.5 0.03-0.99 0.04c-0.33-0.01-0.57-0.07-0.84-0.11q-0.41-0.07-0.82-0.13c-0.32 0-0.63 0.04-0.95-0.02-0.24-0.06-0.54-0.1-0.81-0.14 0.2-0.12 0.59-0.21 0.89-0.31 0.27-0.09 0.28-0.09 1.01-0.17 0.35-0.03 0.47-0.2 0.17-0.26q-0.54-0.08-1.09-0.17c-0.31 0.01-0.63 0.05-0.93-0.02-0.24-0.05-0.51-0.09-0.89-0.07q-0.99 0.05-1.99 0.08c-0.22 0.01-0.47 0.01-0.57-0.04-0.07-0.04 0.12-0.09 0.34-0.1 0.34-0.02 0.64-0.04 0.8-0.11 0.16-0.08 0.46-0.11 0.8-0.12 0.1 0 0.21-0.02 0.25-0.04 0.24-0.09 0.51-0.16 1.02-0.16 0.22-0.03 0.33-0.07 0.26-0.11-0.04-0.02-0.18-0.04-0.26-0.04q-0.83 0.02-1.65 0.06-0.37 0.03-0.61-0.03-0.16-0.05 0.16-0.12c0.19-0.03 0.24-0.08 0.23-0.13-0.04-0.12-0.24-0.16-0.88-0.15-0.46 0.01-0.58-0.01-0.68-0.12-0.02-0.02-0.09-0.05-0.04-0.07 0.28-0.11 0.47-0.24 1.01-0.29 0.21-0.01 0.44-0.02 0.57-0.06q0.19-0.06 0.39-0.12c0.18-0.05 0.3-0.09 0.22-0.12q-0.22-0.07-0.6-0.04-0.32 0.02-0.66 0.03c-0.39 0.02-0.71-0.02-0.76-0.09q-0.2-0.26-0.38-0.53-0.02-0.04 0.07-0.07 0.28-0.09 0.58-0.19c0.23-0.07 0.59-0.06 0.89-0.07 0.44-0.02 0.44-0.02 1.02-0.17 0.22-0.06 0.62-0.04 0.85-0.09 0.07-0.02 0.19-0.04 0.17-0.06-0.03-0.02-0.16-0.03-0.26-0.04q-0.15-0.02-0.31-0.01-1.82 0.07-3.64 0.14c-0.21 0.01-0.44-0.03-0.51-0.07-0.07-0.05-0.05-0.1-0.07-0.15 0.19-0.07 0.41-0.12 0.58-0.19 0.13-0.05 0.27-0.08 0.53-0.08q0.49-0.01 1.03-0.04c0.69-0.23 1.37-0.46 2.12-0.69 0.3-0.09 0.22-0.18 0.28-0.28 0.06-0.09 0.51-0.07 0.81-0.1q0.36-0.04 0.23-0.11c-0.06-0.02-0.18-0.04-0.27-0.04q-0.33 0.01-0.66 0.02c-0.22 0.01-0.48 0.01-0.66 0.03-0.17 0.03-0.28 0.08-0.4 0.13q-0.17 0.07-0.54 0.07-0.49 0.01-0.99 0.03-0.55-0.09-1.08-0.18-0.09-0.03-0.07-0.07 0.02-0.09-0.31-0.13-0.27-0.04-0.52-0.09 0.21-0.06 0.39-0.13c0.23-0.09 0.52-0.16 1.03-0.16 0.2-0.06 0.36-0.13 0.62-0.17 0.25-0.04 0.67 0 0.85-0.09q0.14-0.08 0.42-0.12c0.28-0.03 0.66-0.01 0.82-0.1q0.15-0.08 0.44-0.11c0.22-0.01 0.45-0.01 0.61-0.04 0.09-0.02 0.18-0.04 0.18-0.07 0-0.01-0.13-0.03-0.23-0.04q-0.14-0.02-0.3-0.01-0.5 0.01-0.99 0.03-0.15 0-0.3-0.01c-0.3-0.03-0.28-0.06-0.05-0.11 0.24-0.06 0.4-0.13 0.6-0.19 0.21-0.01 0.48-0.01 0.62-0.04 0.25-0.05 0.42-0.11 0.62-0.18q0.34 0 0.66-0.03c0.08 0 0.12-0.04 0.2-0.06 0.13-0.03 0.24-0.09 0.42-0.11 0.3-0.03 0.66-0.02 0.83-0.1q0.16-0.09 0.44-0.11c0.52 0 0.74-0.09 1.01-0.17 0.2-0.06 0.63-0.03 0.84-0.09 0.15-0.04 0.26-0.09 0.4-0.12 0.06-0.02 0.19-0.03 0.29-0.03q0.83-0.03 1.65-0.07 0.13-0.01 0.23-0.05c0.14-0.04 0.23-0.09 0.4-0.12 0.18-0.02 0.42-0.02 0.64-0.03 0.69-0.03 0.74-0.02 1.05-0.15 0.25-0.11 0.88-0.03 1.08-0.15 0.12-0.07 0.34-0.12 0.73-0.13q0.83-0.03 1.66-0.07c0.49-0.01 0.49-0.01 1.02-0.16 0.24-0.06 0.59-0.05 0.91-0.07 0.33-0.01 0.64-0.03 0.8-0.11 0.16-0.07 0.45-0.1 0.79-0.11 0.32-0.01 0.67 0 0.92-0.06 0.6-0.15 0.59-0.15 1.01-0.17q0.99-0.04 1.98-0.08c0.44-0.02 0.91-0.02 1.32-0.06 0.3-0.02 0.43-0.11 0.63-0.17q0.82-0.03 1.64-0.07 1.15-0.04 2.31-0.09c0.34-0.06 0.38-0.19 0.94-0.19q0.5-0.02 1-0.04 0.83-0.04 1.66-0.06c0.42-0.01 0.49-0.1 0.71-0.15q0.1-0.03 0.23-0.05c0.86-0.04 1.76-0.05 2.61-0.12 0.08 0 0.16-0.04 0.18-0.06 0.02-0.01-0.1-0.03-0.17-0.05q-0.14-0.02-0.3-0.02-4.13 0.17-8.27 0.33c-0.39 0.01-0.39 0.01-1.33 0.18q-0.12 0.03-0.27 0.04-0.67 0.02-1.32 0.05-0.53 0.03-0.91-0.05-0.26-0.06-0.59-0.05c-0.25 0.01-0.42 0.02-0.57 0.06-0.19 0.06-0.29 0.14-0.7 0.15q-2.81 0.11-5.62 0.22-0.41-0.03-0.32-0.09 0.07-0.04 0.2-0.06 1.15-0.05 2.31-0.09c0.11-0.01 0.25 0 0.31-0.02 0.3-0.07 0.4-0.18 0.96-0.19q0.48-0.01 0.95-0.05c0.09-0.01 0.17-0.04 0.19-0.06 0-0.01-0.1-0.04-0.18-0.05-0.3-0.04-0.64 0.01-0.93-0.02-0.1-0.01-0.24-0.02-0.26-0.04-0.02-0.02 0.1-0.05 0.18-0.06q0.11-0.03 0.27-0.04 1.32-0.06 2.64-0.1 0.54-0.02 0.78-0.12 0.16-0.08 0.49-0.09 2.31-0.1 4.63-0.18c0.39-0.02 0.59-0.07 0.75-0.13 0.13-0.06 0.27-0.07 0.52-0.08q3.31-0.13 6.62-0.26c0.41-0.02 0.53-0.08 0.73-0.14 0.07-0.02 0.12-0.04 0.21-0.06q0.15-0.01 0.33-0.01 2.64-0.11 5.3-0.21c0.41-0.01 0.49-0.09 0.7-0.14q0.11-0.04 0.23-0.05 1.98-0.08 3.97-0.16 1.32-0.06 2.64-0.11c0.43-0.01 0.43-0.01 1.02-0.16q0.11-0.03 0.25-0.04 3.8-0.16 7.6-0.3 0.32-0.02 0.48-0.1 0.15-0.08 0.46-0.1 2.98-0.12 5.96-0.23 0.54-0.02 0.77-0.12 0.17-0.08 0.5-0.09 2.97-0.12 5.95-0.23c0.38-0.02 0.57-0.07 0.76-0.13q0.09-0.05 0.2-0.06 1.47-0.07 2.96-0.12c0.41-0.02 0.55-0.08 0.72-0.14 0.13-0.05 0.29-0.07 0.54-0.08q0.83-0.02 1.64-0.07c0.08 0 0.18-0.03 0.19-0.06 0.01-0.04-0.14-0.06-0.4-0.08q-3.97 0.16-7.94 0.32c-0.43 0.01-0.43 0.01-1.02 0.16q-0.1 0.03-0.25 0.04-3.8 0.15-7.6 0.31-0.32 0.01-0.48 0.09-0.16 0.08-0.46 0.1-3.64 0.14-7.28 0.28-0.54 0.02-0.78 0.12-0.16 0.08-0.49 0.09-3.47 0.14-6.95 0.27c-0.23 0.01-0.41-0.03-0.4-0.07 0.01-0.03 0.11-0.06 0.19-0.06q1.81-0.09 3.63-0.15c0.4-0.02 0.52-0.08 0.73-0.14q0.09-0.04 0.21-0.06 0.14-0.01 0.32-0.01 4.3-0.18 8.6-0.34c0.42-0.02 0.5-0.09 0.71-0.14q0.1-0.04 0.23-0.05 1.32-0.06 2.64-0.11 2.31-0.09 4.63-0.18c0.45-0.02 0.45-0.02 1.02-0.17q0.11-0.03 0.25-0.04 6.12-0.24 12.24-0.48 0.32-0.02 0.47-0.1 0.16-0.08 0.47-0.1 8.27-0.33 16.54-0.65 0.54-0.02 0.78-0.12 0.16-0.08 0.49-0.09 9.09-0.36 18.19-0.72 6.12-0.24 12.24-0.48c0.38-0.02 0.58-0.06 0.76-0.13q0.09-0.04 0.2-0.06 1.32-0.06 2.63-0.11 0.41 0.06 0.82 0.12 0.31-0.09 0.61-0.18c1.33-0.04 2.63-0.12 3.96-0.14q0.14 0.01 0.28 0.04c0.62 0.1 0.97 0.09 1.37-0.04 0.14-0.05 0.26-0.09 0.47-0.1q1-0.03 1.98-0.08 0.53-0.03 0.91 0.05 0.26 0.07 0.58 0.05 1.82-0.07 3.64-0.14 0.14-0.02 0.24-0.05 0.2-0.06 0.39-0.13c0.18 0.03 0.38 0.05 0.53 0.08 0.19 0.04 0.36 0.04 0.61 0.03q7.28-0.29 14.55-0.58c0.42-0.02 0.6 0.05 0.88 0.08q0.14 0.02 0.29 0.03 0.16 0 0.32-0.01 5.46-0.22 10.92-0.43c0.48-0.02 0.48-0.02 1.2 0.07q0.14 0.03 0.29 0.02 2.49-0.09 4.96-0.19 0.31-0.01 0.59 0.05c0.39 0.07 0.41 0.07 0.69-0.03 0.13-0.05 0.27-0.08 0.49-0.09q0.35-0.03 0.63 0.01c0.26 0.04 0.46 0.1 0.87 0.09q2.64-0.11 5.28-0.22c0.4-0.02 0.62 0.03 0.89 0.07q0.13 0.03 0.28 0.04 0.16 0 0.32-0.01 3.31-0.13 6.61-0.26c0.42-0.02 0.6 0.04 0.88 0.08q0.15 0.02 0.29 0.03 1.99-0.08 3.97-0.16c0.48-0.02 0.48-0.02 1.2 0.08q0.14 0.02 0.29 0.02 2.32-0.09 4.64-0.18c0.47-0.02 0.47-0.02 1.84 0.05q0.16 0.02 0.31 0.02 2.65-0.11 5.29-0.21 0.53-0.03 0.91 0.05 0.26 0.06 0.59 0.04 2.98-0.11 5.94-0.23c0.39-0.02 0.63 0.01 0.9 0.06q0.13 0.03 0.28 0.04 0.15 0.01 0.32 0 2.98-0.12 5.95-0.24c0.4-0.02 0.61 0.03 0.88 0.07q0.15 0.03 0.27 0.04 1.17-0.04 2.32-0.09c0.41-0.02 0.59 0.05 0.88 0.08q0.15 0.02 0.28 0.03 2.49-0.1 4.96-0.2c0.24-0.01 0.41 0.01 0.6 0.05q0.36 0.08 0.9 0.05 1.15-0.05 2.31-0.09c0.46-0.02 0.46-0.02 1.85 0.06q0.15 0.01 0.3 0.01 1.99-0.07 3.97-0.16 0.53-0.02 0.9 0.06 0.26 0.06 0.59 0.04 1.82-0.07 3.64-0.14 0.66-0.04 1.32-0.05c0.33 0 0.56 0.07 0.85 0.11 0.08 0.01 0.21 0 0.32 0q2.32-0.09 4.62-0.19c0.41-0.02 0.62 0.03 0.89 0.07q0.15 0.03 0.27 0.04 0.83-0.03 1.66-0.06 0.99-0.04 1.98-0.08c0.54-0.03 0.74 0.1 1.17 0.11q0.49-0.01 0.98-0.04 1-0.04 1.99-0.08 0.36 0 0.48-0.08c0.02-0.02-0.1-0.04-0.17-0.05-0.89-0.16-0.89-0.16-1.79-0.12q-0.82 0.03-1.65 0.06-0.15 0-0.3-0.02c-0.26-0.02-0.24-0.05-0.01-0.11 0.23-0.05 0.4-0.12 0.59-0.18q0.41 0.05 0.82 0.11 0.33-0.01 0.66-0.02 1.65-0.07 3.3-0.13 0.13 0.01 0.28 0.05c0.27 0.04 0.51 0.08 0.89 0.06q1.49-0.06 2.98-0.12c0.43-0.02 0.43-0.02 1.19 0.08q0.15 0.02 0.3 0.02 1.49-0.06 2.97-0.12 0.34-0.01 0.58 0.06c0.06 0.02 0.05 0.05 0.3 0.3 0.8 0.2 1.34 0.18 1.88 0.16q0.36-0.01 0.6-0.05c0.08-0.02 0.18-0.04 0.18-0.06 0-0.02-0.15-0.04-0.24-0.04-0.67-0.03-1.29 0.03-1.94 0.05-0.3 0-0.56-0.05-0.62-0.14q-0.02-0.03-0.05-0.07-0.03-0.04-0.06-0.08c-0.26 0-0.41 0.02-0.52 0.08q-0.14 0.07-0.41 0.11c-0.18 0.03-0.43 0.02-0.65 0.03-0.21 0.01-0.44 0.03-0.64 0.02-0.2-0.01-0.36-0.06-0.55-0.08q-0.14-0.03-0.28-0.03-1.15 0.03-2.29 0.09c-0.4 0.01-0.6-0.05-0.86-0.09-0.2-0.03-0.4-0.02-0.43 0.05q-0.13 0.25 0.9 0.21c0.56-0.03 1.07-0.04 1.51 0.06 0.06 0.02 0.2 0.02 0.29 0.02q0.82-0.03 1.63-0.06 0.16 0 0.31 0.01c1.36 0.08 1.36 0.08 1.82 0.06 0.22-0.01 0.43-0.02 0.41-0.25 0.42-0.25 1.09-0.27 1.74-0.31 0.41-0.02 0.6 0.05 0.87 0.08q0.15 0.03 0.28 0.03 2.15-0.08 4.3-0.17c0.24 0 0.41 0 0.6 0.04 0.24 0.05 0.51 0.09 0.89 0.07q1.14-0.06 2.31-0.1c0.39-0.01 0.39-0.01 1.19 0.08q0.14 0.02 0.29 0.02 1.16-0.04 2.31-0.09 0.32-0.01 0.58 0.05 0.25 0.07 0.57 0.06 1.16-0.05 2.31-0.09 0.15 0 0.3 0.02c0.81 0.09 0.81 0.09 1.19 0.07q0.83-0.02 1.65-0.06c0.52-0.04 0.8 0.05 1.16 0.1q1.49-0.05 2.97-0.11c0.39-0.02 0.61 0.03 0.88 0.07q0.14 0.03 0.27 0.04 0.5-0.01 0.99-0.04 0.49-0.02 0.99-0.04c0.37 0.05 0.62 0.15 1.16 0.12q0.48-0.03 0.98-0.04 0.5-0.02 0.99-0.04 0.34-0.01 0.66-0.03c0.4-0.02 0.59 0.05 0.87 0.09q0.15 0.02 0.29 0.02 1-0.03 1.98-0.08c0.5-0.03 0.84 0.02 1.19 0.08 0.08 0.02 0.2 0.02 0.3 0.02q1.16-0.04 2.31-0.09 0.32-0.01 0.57 0.06 0.27 0.06 0.58 0.05 1.16-0.05 2.32-0.09 0.15 0 0.29 0.02c0.75 0.09 0.75 0.1 1.19 0.08q0.16-0.01 0.33-0.02c0.54-0.02 1.11-0.03 1.65-0.07 0.61-0.04 1.06 0.01 1.49 0.1q0.84-0.02 1.65-0.06c0.4-0.03 0.61 0.03 0.88 0.07q0.15 0.03 0.27 0.04 1.17-0.04 2.31-0.09c0.42-0.03 0.6 0.04 0.88 0.08q0.15 0.02 0.28 0.03 0.66-0.02 1.32-0.05c0.52-0.02 0.52-0.02 1.2 0.07 0.32 0.05 0.64 0.01 0.96 0 0.33-0.01 0.64-0.02 0.91 0.04q0.26 0.06 0.58 0.06 0.66-0.02 1.32-0.06 0.52-0.03 0.9 0.05 0.27 0.06 0.59 0.05 1.49-0.06 2.97-0.11c0.09-0.01 0.21 0.01 0.29 0.02q0.28 0.04 0.55 0.09 0.66-0.02 1.31-0.05c0.45-0.02 0.86-0.03 1.22 0.06 0.07 0.02 0.18 0.04 0.27 0.04q0.5-0.01 0.99-0.04 0.49-0.02 0.98-0.03c0.39 0.03 0.63 0.14 1.16 0.11q0.49-0.03 0.99-0.04 0.49-0.02 0.99-0.04 0.17-0.01 0.32-0.01 0.15 0.02 0.27 0.05c0.27 0.04 0.52 0.08 0.9 0.06q0.49-0.03 0.99-0.04c0.44-0.02 0.44-0.02 1.19 0.07 0.3 0.04 0.64-0.01 0.93 0.02q0.28 0.04 0.54 0.09c0.09 0.01 0.21 0.02 0.31 0.01q0.66-0.02 1.32-0.05 0.53-0.03 0.89 0.05 0.26 0.06 0.59 0.05 1.66-0.06 3.3-0.13 0.57-0.03 0.88 0.06c0.36 0.09 0.86-0.02 1.23 0.06 0.22 0.04 0.45 0.1 0.87 0.08q1.14-0.06 2.3-0.1 0.41 0.06 0.83 0.13 0.66-0.03 1.32-0.06 0.5-0.02 0.99-0.04 0.16 0 0.32 0 0.14 0.02 0.28 0.05c0.46 0.07 0.46 0.07 1.22 0.04 0.33-0.02 0.64-0.02 0.91 0.04q0.39 0.08 0.91 0.05 0.98-0.05 1.98-0.08 0.31-0.01 0.58 0.05c0.26 0.07 0.58 0.06 0.9 0.04 0.44-0.02 0.87-0.04 1.23 0.04 0.08 0.02 0.19 0.05 0.27 0.05q0.83-0.02 1.64-0.06c0.53-0.03 0.79 0.07 1.16 0.11q0.83-0.03 1.65-0.06 0.17-0.02 0.33-0.01c0.39 0.03 0.62 0.14 1.16 0.11q0.48-0.03 0.98-0.03c0.09-0.01 0.2 0.02 0.27 0.04 0.03 0.01 0 0.04-0.05 0.06-0.12 0.04-0.26 0.08-0.37 0.12-0.01 0.01 0.12 0.04 0.19 0.05q0.27 0.03 0.63 0.01c0.21-0.01 0.42 0.01 0.57 0.05 0.06 0.02 0.04 0.05-0.09 0.16 0 0.07 0.14 0.04 0.19-0.01 0.07-0.07-0.07-0.1-0.34-0.06q-0.29 0.05-0.23 0.1c0.03 0.02 0.16 0.04 0.38-0.03 0.59-0.1 1.03-0.12 1.47-0.13 0.11-0.01 0.25-0.02 0.33-0.01q0.42 0.05 0.83 0.12c0.32-0.01 0.62-0.04 0.94 0.02 0.44 0.09 0.46 0.08 0.89 0.06q0.33-0.01 0.66-0.02c0.22-0.01 0.39 0.01 0.59 0.05 0.39 0.07 0.43 0.07 0.69-0.03 0.15-0.06 0.26-0.08 0.45-0.05 0.64 0.09 0.65 0.09 1.2 0.07 0.45-0.03 0.88-0.04 1.21 0.05 0.23 0.06 0.3 0.05 0.48-0.02 0.48-0.17 0.7-0.16 1.61-0.04 0.42 0.05 0.85-0.01 1.28-0.02 0.36 0 0.61 0.03 0.64 0.13 0.02 0.06 0.08 0.1 0.32 0.12q0.15 0.02 0.3 0.02 0.83-0.03 1.66-0.07c0.28-0.01 0.43-0.08 0.38-0.18-0.06-0.1 0.05-0.14 0.44-0.17q0.35-0.02 0.63 0.02c0.22 0.03 0.16 0.06-0.03 0.11-0.44 0.14-0.39 0.22 0.19 0.31 0.2 0.03 0.36 0.06 0.4 0.11 0.03 0.03 0 0.06 0.06 0.08 0.33 0.1 0.79 0.16 1.3 0.21 0.48-0.04 0.82 0.03 1.19 0.08 0.3 0.05 0.65 0.01 0.96-0.01q0.52-0.03 0.9 0.05 0.27 0.06 0.59 0.05 0.67-0.02 1.32-0.05 0.55-0.03 0.89 0.06c0.3 0.06 0.62 0.02 0.93 0.03 0.42 0.01 0.62 0.14 1.17 0.11q0.48-0.03 0.98-0.04c0.09 0 0.2 0.02 0.27 0.04 0.36 0.08 0.77 0.08 1.22 0.05 0.32-0.01 0.63-0.03 0.93 0.03 0.51 0.1 1.07 0.18 1.61 0.27 0.07 0.07 0.02 0.15 0.4 0.19q0.31 0.04 0.54 0.09c0.19 0.04 0.37 0.05 0.61 0.04q0.66-0.02 1.31-0.05c0.4-0.03 0.64 0.02 0.88 0.07 0.2 0.04 0.38 0.06 0.61 0.03 0.24-0.03 0.42-0.01 0.61 0.03 0.28 0.06 0.3 0.05 1.21 0.06 0.09 0.01 0.2 0.03 0.26 0.05 0.02 0.01-0.04 0.04-0.08 0.06q-0.1 0.03-0.24 0.04-1.49 0.06-2.98 0.12-0.16 0.01-0.27 0.03c-0.08 0.02-0.18 0.04-0.18 0.06 0 0.02 0.13 0.04 0.22 0.05 0.3 0.03 0.64-0.02 0.93 0.02 0.2 0.02 0.36 0.06 0.55 0.08 0.08 0.02 0.21 0.01 0.31 0.01q0.5-0.02 0.99-0.04 0.15 0.01 0.29 0.03c0.64 0.09 0.64 0.09 1.2 0.07q0.34-0.03 0.66-0.02 0.29 0.02 0.55 0.07c0.38 0.06 0.73 0.11 0.76 0.23 0.02 0.05 0.24 0.09 0.46 0.09q0.32 0 0.66-0.03c0.52-0.02 0.52-0.02 1.19 0.08q0.28 0.03 0.63 0.01 0.15-0.01 0.31 0.01c0.33 0.02 0.33 0.05 0.11 0.1-0.29 0.09-0.27 0.09 0.57 0.16 0.33 0.03 0.57 0.08 0.84 0.12 0.44 0.07 0.43 0.07 0.14 0.16q-0.09 0.03-0.19 0.06c-0.19 0.06-0.35 0.13-0.75 0.13q-0.66 0.02-1.32 0.05c-0.43 0.02-0.54 0.06-0.5 0.16 0.05 0.13 0.14 0.14 0.91 0.14q0.33-0.01 0.58 0.05-0.12 0.08-0.44 0.1-0.83 0.03-1.65 0.06-0.66 0.03-1.32 0.06c-0.28 0.01-0.45 0.09-0.38 0.18q0.06 0.07 0.11 0.15c0.08 0.1 0.22 0.13 0.67 0.12q0.17-0.01 0.32-0.01c0.44 0.01 0.65 0.14 1.17 0.11q0.66-0.02 1.31-0.06c0.4-0.02 0.62 0.03 0.89 0.08q0.15 0.03 0.28 0.04 0.83-0.03 1.65-0.07c0.25-0.01 0.4 0 0.6 0.03 0.49 0.09 0.5 0.09 1.21 0.06 0.53-0.02 0.53-0.02 1.2 0.07q0.28 0.04 0.63 0.01 0.47-0.03 0.97-0.01c0.1 0 0.23 0.02 0.26 0.04 0.02 0.01-0.07 0.05-0.15 0.06-0.59 0.08-1.28 0.07-1.92 0.1q-0.31 0.01-0.57-0.06-0.25-0.06-0.59-0.05-0.66 0.02-1.32 0.05c-0.37 0.03-0.63-0.01-0.9-0.06q-0.13-0.03-0.27-0.04-1.49 0.05-2.97 0.11c-0.39 0.02-0.62-0.03-0.88-0.07q-0.15-0.03-0.28-0.04-0.5 0.01-0.99 0.04-1.82 0.07-3.64 0.14-0.13-0.01-0.28-0.04-0.27-0.04-0.55-0.08-0.5 0.02-1 0.04c-0.24 0-0.45 0.02-0.48 0.08-0.02 0.04 0.2 0.08 0.43 0.07 0.23 0 0.46-0.02 0.64 0 0.93 0.1 0.93 0.1 1.51 0.08 0.51-0.02 0.46-0.04 0.91 0.05 0.19 0.03 0.36 0.05 0.58 0.04q0.83-0.03 1.66-0.06 0.14 0 0.29 0.02c0.65 0.09 0.65 0.1 1.19 0.07 0.71-0.02 0.74-0.03 1.21 0.06 0.33 0.06 0.63 0.02 0.95 0.02 0.36 0.05 0.75 0.11 1.08 0.17 0.39 0.08 0.8 0.07 1.24 0.05 0.32-0.02 0.64-0.03 0.91 0.03q0.39 0.08 0.91 0.05c0.32-0.01 0.64-0.04 0.96-0.01 0.09 0.01 0.23 0.03 0.22 0.05-0.01 0.02-0.1 0.05-0.18 0.06-0.61 0.06-1.29 0.06-1.94 0.09q-0.14 0-0.29-0.02-0.28-0.04-0.54-0.09-0.5 0.01-0.99 0.03-0.35 0.03-0.61-0.02-0.25-0.06-0.55-0.09c-0.2-0.01-0.43 0.02-0.65 0.03-0.22 0.01-0.48 0-0.65 0.03-0.17 0.02-0.28 0.08-0.39 0.12q-0.19 0.07-0.56 0.07-0.34 0.01-0.59-0.05-0.12-0.02-0.28-0.04-0.15-0.02-0.28-0.02-1.49 0.05-2.98 0.11c-0.5 0.02-0.49 0.02-1.52-0.07q-0.15-0.01-0.3-0.01-0.83 0.03-1.66 0.06c-0.56 0.02-0.55 0.02-1.51-0.07-0.17-0.02-0.43 0-0.63 0-0.44-0.01-0.65-0.14-1.16-0.11q-0.66 0.02-1.32 0.06c-0.4 0.02-0.62-0.03-0.89-0.07q-0.15-0.04-0.28-0.04c-0.99 0.03-1.98 0.07-3.3 0.08-0.33 0-0.18 0.03 0.03 0.04 0.31 0.02 0.41-0.01 0.24-0.08-0.12-0.04-0.29-0.06-0.43-0.05-0.08 0.01-0.17 0.04 0.16 0.09 0.35 0.06 0.33 0.09 0.39 0.11q0.23 0.06 0.56 0.05 0.5-0.02 1-0.03 0.15-0.01 0.3 0.02c0.73 0.09 0.74 0.1 1.52 0.06 0.25-0.01 0.43-0.01 0.62 0.01 0.27 0.04 0.46 0.11 0.87 0.09q0.81-0.04 1.65-0.07 0.13 0.01 0.28 0.04c0.27 0.04 0.48 0.1 0.88 0.07q0.48-0.03 0.99-0.03c0.09 0 0.22 0.02 0.26 0.04q0.11 0.06-0.24 0.11-0.16 0.01-0.33 0.01-0.66 0.03-1.32 0.05c-0.24 0.01-0.46 0.04-0.48 0.09-0.02 0.04 0.22 0.07 0.44 0.07q0.51-0.01 0.99-0.04 0.84-0.06 1.53 0.07c0.33 0.07 0.31 0.04 0.66 0.24 0.08 0.05 0.34 0.06 0.57 0.05q0.82-0.01 0.76 0.07c-0.06 0.05-0.26 0.07-0.5 0.08q-0.66 0.02-1.33 0.05-0.16 0.01-0.32 0.01-0.15-0.01-0.28-0.03c-0.19-0.03-0.35-0.07-0.55-0.08-0.2-0.01-0.44 0.01-0.66 0.02-0.22 0.01-0.45 0.03-0.65 0.02-0.2-0.01-0.37-0.06-0.55-0.08q-0.14-0.03-0.28-0.04-0.66 0.03-1.32 0.05c-0.54 0.02-0.54 0.02-1.2-0.07q-0.27-0.04-0.63-0.01c-0.53 0.02-0.54 0.02-1.52-0.07q-0.15-0.02-0.3-0.01-1.49 0.05-2.97 0.11c-0.85 0.03-0.85 0.03-1.31 0.19-0.35 0.11-0.35 0.11-0.01 0.17 0.27 0.04 0.52 0.1 0.82 0.12 0.28 0.02 0.63-0.05 0.93 0.02 0.16 0.04 0.36 0.08 0.55 0.08 0.31 0.01 0.64-0.03 0.93 0.03 0.15 0.04 0.37 0.07 0.56 0.07q0.49 0 0.99-0.03 0.15-0.01 0.3 0 0.15 0.02 0.28 0.04 0.39 0.09 0.9 0.05 0.85-0.07 1.52 0.08c0.06 0.01 0.21 0.01 0.3 0.01q0.36-0.03 0.63 0.01c0.07 0.01 0.18 0.03 0.16 0.05q-0.04 0.04-0.18 0.06c-0.63 0.05-1.3 0.06-1.95 0.09q-0.14-0.01-0.28-0.03c-0.19-0.03-0.35-0.08-0.55-0.09q-0.31 0-0.66 0.02c-0.22 0.01-0.45 0.03-0.65 0.02q-0.3-0.02-0.55-0.08c-0.19-0.04-0.37-0.04-0.61-0.03q-0.49 0.03-0.98 0.04-0.27-0.04-0.55-0.09-0.14-0.02-0.29-0.03-0.66 0.02-1.32 0.05c-0.44 0.02-0.44 0.02-1.19-0.07q-0.15-0.02-0.3-0.02-0.83 0.03-1.65 0.06-0.33 0.01-0.59-0.05-0.25-0.07-0.57-0.06-1.32 0.05-2.65 0.11-0.53 0.02-0.89-0.06c-0.28-0.06-0.6-0.04-0.92-0.03-0.74 0.03-0.75 0.03-1.23-0.05q-0.14-0.03-0.27-0.04-1.16 0.03-2.3 0.09c-0.41 0.02-0.62-0.04-0.89-0.08q-0.15-0.03-0.27-0.04-0.84 0.03-1.65 0.07c-0.54 0.03-0.75-0.11-1.16-0.11q-0.83 0.02-1.65 0.06-0.66 0.03-1.32 0.06-0.66 0.02-1.32 0.05c-0.24 0.01-0.41 0-0.6-0.04-0.25-0.05-0.55-0.09-0.81-0.14-0.41-0.06-0.41-0.06-0.91-0.04q-0.16 0-0.32 0.01c-0.81 0.04-0.81 0.03-1.84-0.06-0.05-0.01-0.17 0.01-0.21 0.02q-0.21 0.06-0.4 0.13c-0.18-0.03-0.4-0.04-0.52-0.08-0.34-0.09-0.88 0.04-1.22-0.05-0.13-0.04-0.35-0.07-0.55-0.08-0.21-0.01-0.44 0.01-0.66 0.02-0.55 0.02-0.55 0.02-1.02 0.16-0.24 0.07-0.59 0.06-0.9 0.07-0.33 0.02-0.65 0.03-0.92-0.03q-0.37-0.08-0.9-0.05-0.66 0.03-1.33 0.05-0.14 0-0.3-0.01c-1.02-0.09-1.02-0.09-1.51-0.07q-0.34 0.01-0.66 0.02c-0.36 0.03-0.64 0-0.9-0.05q-0.14-0.04-0.27-0.04-0.66 0.01-1.31 0.03-0.51 0.02-0.99 0.04c-0.53 0.04-0.8-0.06-1.16-0.1q-0.83 0.02-1.66 0.06c-0.25 0.01-0.42 0.01-0.61-0.03-0.25-0.04-0.47-0.1-0.88-0.07q-0.81 0.04-1.64 0.06c-0.37-0.05-0.63-0.14-1.16-0.11q-0.49 0.03-0.99 0.04-0.66 0.03-1.32 0.06c-0.48 0.02-0.47 0.01-1.2-0.08-0.42-0.05-0.85 0.01-1.28 0.02-0.34 0.01-0.5 0.08-0.42 0.17 0.08 0.09-0.1 0.16-0.41 0.17q-1.15 0.05-2.31 0.09-0.15 0-0.29-0.01c-0.82-0.1-0.82-0.1-1.19-0.08q-0.83 0.03-1.65 0.06c-0.37 0.02-0.65-0.01-0.89-0.06-0.19-0.04-0.36-0.05-0.6-0.04q-3.97 0.16-7.93 0.32c-0.39 0.02-0.62-0.03-0.89-0.07q-0.13-0.03-0.27-0.04-0.33 0-0.66 0.02-1.48 0.07-2.97 0.12c-0.42 0.01-0.54 0.08-0.72 0.14-0.14 0.04-0.3 0.06-0.54 0.07-0.24 0.01-0.42 0-0.61-0.04-0.24-0.05-0.51-0.08-0.88-0.06q-0.66 0.03-1.33 0.05-0.35 0.01-0.47 0.09c-0.01 0.01 0.13 0.04 0.21 0.05 0.27 0.04 0.52 0.1 0.82 0.13 0.31 0.03 0.64-0.01 0.96-0.02q0.17 0 0.33-0.01c0.1 0 0.22 0.01 0.29 0.03 0.35 0.06 0.72 0.11 1.2 0.07 0.42 0.02 0.63 0.15 1.16 0.11q0.48-0.03 0.99-0.04 0.13 0.01 0.27 0.04c0.27 0.04 0.48 0.1 0.88 0.07q0.66-0.03 1.32-0.05c0.24-0.02 0.41 0 0.6 0.03 0.24 0.06 0.52 0.09 0.89 0.07q0.49-0.03 0.99-0.04c0.43-0.02 0.43-0.02 1.19 0.07q0.14 0.02 0.29 0.02 0.83-0.03 1.66-0.06 0.33-0.01 0.57 0.06c0.06 0.01 0.04 0.05 0.06 0.07q-1.66 0.06-3.3 0.13c-0.41 0.03-0.6-0.04-0.88-0.07q-0.14-0.03-0.28-0.04-1.16 0.04-2.31 0.09-0.34 0.03-0.6-0.03c-0.46-0.12-1.02-0.06-1.54-0.04-0.4 0.01-0.53 0.06-0.48 0.16 0.06 0.12 0.3 0.16 0.91 0.14q0.34-0.02 0.67-0.03 0.32-0.01 0.58 0.06 0.26 0.06 0.57 0.05 0.67-0.02 1.32-0.05 0.53-0.03 0.89 0.05c0.28 0.06 0.6 0.05 0.92 0.03 0.75-0.03 0.75-0.03 1.22 0.05q0.14 0.03 0.28 0.04 1.16-0.03 2.29-0.08c0.4-0.02 0.63 0.03 0.89 0.07q0.14 0.03 0.27 0.04 0.84-0.02 1.65-0.07c0.25-0.01 0.41 0 0.62 0.03 0.49 0.09 0.5 0.09 1.21 0.06 0.21-0.01 0.44-0.03 0.64-0.01 0.2 0.01 0.37 0.05 0.55 0.08q0.14 0.02 0.29 0.02 0.66-0.02 1.32-0.05c0.42-0.01 0.42-0.01 1.19 0.08 0.32 0.04 0.64 0.01 0.96-0.01q0.51-0.03 0.91 0.05 0.4 0.08 0.91 0.04c0.31-0.01 0.63-0.04 0.95 0 0.74 0.09 0.74 0.09 1.19 0.07q0.99-0.04 1.98-0.07 0.15 0 0.29 0.02c0.19 0.03 0.35 0.08 0.55 0.09 0.2 0.01 0.43-0.01 0.65-0.02 0.69-0.03 0.73-0.04 1.2 0.06 0.38 0.08 0.86-0.04 1.22 0.06 0.21 0.05 0.49 0.09 0.88 0.06q0.48-0.02 0.99-0.04c0.53-0.02 0.53-0.02 1.2 0.07q0.14 0.03 0.28 0.03 0.67-0.02 1.32-0.05c0.5-0.04 0.82 0.02 1.2 0.08 0.29 0.04 0.64 0 0.95-0.01q0.52-0.04 0.9 0.04c0.27 0.07 0.58 0.06 0.92 0.04 0.31-0.01 0.63-0.04 0.96 0 0.68 0.09 0.68 0.09 1.19 0.07q0.66-0.02 1.32-0.05 0.14 0.01 0.28 0.03c0.19 0.03 0.35 0.08 0.55 0.09 0.2 0.01 0.43-0.01 0.65-0.02 0.22-0.01 0.45-0.03 0.65-0.02q0.31 0.02 0.55 0.08c0.19 0.04 0.37 0.04 0.62 0.03q0.49-0.03 0.98-0.04 0.28 0.04 0.54 0.09 0.26 0.04 0.62 0.02c0.83-0.04 0.83-0.04 1.52 0.06 0.32 0.04 0.64 0 0.96-0.01 0.33-0.01 0.64-0.02 0.91 0.04q0.39 0.09 0.9 0.05 0.32-0.02 0.66-0.02c0.1-0.01 0.22 0 0.29 0.01 0.36 0.07 0.71 0.12 1.19 0.08 0.43 0.01 0.65 0.14 1.16 0.11q0.66-0.02 1.32-0.05c0.39-0.03 0.67 0.01 0.87 0.07 0.37 0.09 0.87-0.04 1.23 0.06 0.21 0.05 0.48 0.09 0.88 0.07 0.44-0.03 0.58 0 0.71 0.1q0.12 0.08-0.07 0.14-0.19 0.07-0.5-0.01-0.37-0.08-0.89-0.05c-0.35 0.01-0.57-0.07-0.85-0.1-0.29-0.03-0.63 0.02-0.93-0.02-0.71-0.09-0.71-0.09-1.19-0.07q-0.5 0.01-0.99 0.04c-0.38 0.02-0.63-0.02-0.89-0.07q-0.14-0.03-0.27-0.04-1.16 0.03-2.3 0.09c-0.4 0.02-0.62-0.04-0.88-0.07q-0.15-0.04-0.28-0.04-0.99 0.03-1.97 0.08-0.2 0.06-0.39 0.12-0.18 0.07-0.55 0.07c-0.43 0-0.84 0.06-1.26-0.02-0.44-0.08-0.47-0.07-0.89-0.05-0.53 0.02-1.1 0.02-1.6 0.08-0.09 0.01-0.18 0.04-0.18 0.06-0.01 0.02 0.13 0.04 0.22 0.05 0.29 0.03 0.63-0.02 0.93 0.02 0.19 0.02 0.35 0.06 0.55 0.08q0.13 0.02 0.3 0.01 0.17-0.01 0.33-0.01 0.16 0 0.29 0.02c0.37 0.06 0.76 0.11 1.08 0.18 0.32 0.07 0.63 0.02 0.95 0.02 1.28 0.11 1.28 0.11 2.14 0.07q0.32-0.01 0.66-0.01 0.13 0.01 0.27 0.04c0.27 0.04 0.52 0.08 0.9 0.06q0.48-0.03 0.98-0.04c0.44-0.02 0.44-0.02 1.19 0.08q0.28 0.03 0.63 0c0.21-0.01 0.42 0.02 0.57 0.06 0.06 0.02 0.04 0.05 0.06 0.07q-1 0.04-1.97 0.09c-0.41 0.02-0.6-0.05-0.87-0.08q-0.15-0.03-0.28-0.04-0.99 0.04-1.97 0.09c-0.08 0-0.18 0.04-0.19 0.06-0.01 0.04 0.16 0.08 0.4 0.07 0.32 0 0.64-0.02 0.92 0.04q0.37 0.08 0.9 0.05 0.33-0.01 0.65-0.03 0.86-0.07 1.51 0.08c0.33 0.02 0.65 0 0.97-0.02 0.23-0.01 0.46-0.02 0.62 0.01 0.36 0.06 0.71 0.12 1.19 0.08 0.53 0.04 0.93 0.13 1.38 0.2 0.2 0.04 0.36 0.06 0.6 0.04q0.16-0.02 0.33-0.02c0.22-0.01 0.46-0.03 0.66-0.02 0.2 0.01 0.36 0.05 0.54 0.08q0.14 0.03 0.28 0.04 0.5-0.02 0.99-0.04 0.49-0.02 0.98-0.04 0.41 0.06 0.83 0.12 0.66-0.02 1.31-0.05c0.49-0.02 0.49-0.02 1.19 0.08 0.32 0.04 0.65 0.01 0.95-0.01 0.5-0.03 0.84 0.03 1.19 0.09 0.08 0.01 0.21 0.02 0.3 0.01q0.52-0.03 0.9 0.05 0.26 0.06 0.58 0.05 1.15-0.05 2.31-0.09 0.14 0 0.28 0.02c0.68 0.1 0.69 0.1 1.19 0.07 0.45-0.02 0.86-0.03 1.22 0.06 0.07 0.01 0.19 0.04 0.27 0.04q0.82-0.02 1.64-0.06c0.25-0.02 0.42-0.01 0.61 0.02 0.25 0.05 0.47 0.1 0.88 0.08 1.13-0.06 1.14-0.05 2.47 0.06q0.16 0 0.33-0.02c0.23-0.01 0.39 0.01 0.59 0.04 0.45 0.08 0.47 0.08 0.9 0.06q0.49-0.01 0.98-0.04c0.5-0.04 0.83 0.02 1.19 0.08 0.3 0.04 0.64 0.01 0.95-0.01q0.52-0.03 0.9 0.05 0.26 0.06 0.59 0.05 1.15-0.04 2.3-0.09 0.15 0 0.29 0.02c0.77 0.09 0.77 0.1 1.52 0.06q0.36-0.02 0.62 0.02 0.27 0.05 0.55 0.09 0.49-0.01 0.98-0.04c0.24-0.01 0.42 0 0.61 0.03 0.26 0.04 0.47 0.11 0.87 0.07 0.21-0.01 0.45-0.01 0.66-0.02 0.24-0.02 0.41-0.01 0.6 0.03 0.24 0.04 0.49 0.09 0.88 0.07q0.65-0.04 1.32-0.06c0.24-0.01 0.4 0 0.6 0.04 0.24 0.05 0.51 0.08 0.89 0.06 0.76-0.04 0.76-0.03 1.51 0.07q0.27 0.03 0.63 0c0.2-0.01 0.42 0.01 0.56 0.06 0.14 0.05 0.13 0.08 0.14 0.11zm-59.69-13.76c-0.23 0.01-0.44 0.02-0.77-0.11-0.02-0.03 0-0.05-0.05-0.07q-0.17-0.07-0.48-0.08c-0.36 0-0.79 0.05-0.78 0.09q0.01 0.05 0.34 0.09 0.13 0.02 0.25 0.04c0.26 0.04 0.46 0.1 0.82 0.07-0.06-0.1-0.03-0.05 0 0q-0.05 0.09 0.31 0.11c0.07 0.01 0.17 0.01 0.22 0 0.21-0.04 0.24-0.08 0.09-0.2q-0.04 0.04 0.05 0.06c0.06 0.01 0.21 0 0.28-0.01q0.29-0.05 0.23-0.1c-0.02-0.02-0.15-0.04-0.23-0.04-0.14 0-0.27 0.04-0.28 0.15zm54.23 17.73c-0.49 0.03-1.05 0.02-1.53 0.08-0.09 0.01-0.18 0.04-0.18 0.06-0.01 0.01 0.12 0.03 0.2 0.04q0.27 0.03 0.62 0.01c0.35-0.01 0.56 0.06 0.84 0.09q0.14 0.02 0.29 0.02 0.81-0.03 1.61-0.07 0.15 0 0.28-0.02 0.38-0.07-0.02-0.11c-0.29-0.04-0.52-0.1-0.81-0.13-0.42-0.04-0.85 0.02-1.3 0.03zm-37.92 1.18q-0.49 0.02-0.98 0.04-0.16 0.01-0.32 0.01-0.31 0.02-0.46 0.1 0.24 0.06 0.55 0.06 0.49-0.03 0.97-0.04c0.36-0.01 0.57 0.06 0.84 0.1q0.14 0.01 0.29 0.01c0.5 0.01 0.8-0.07 0.7-0.19-0.06-0.08-0.32-0.14-0.63-0.12q-0.48 0.01-0.96 0.03zm40.18-3.46q0.13-0.04 0.21-0.07 0.18-0.11-0.15-0.2c-0.27-0.07-0.6-0.02-0.9-0.01-0.07 0-0.15 0.03-0.19 0.05q-0.05 0.03 0.01 0.05 0.5 0.09 1.02 0.18zm-58.01-4.44q-0.48 0.02-0.97 0.04-0.12 0.02-0.2 0.06-0.13 0.07 0.28 0.09 0.48 0 0.97-0.03c0.42-0.02 0.66-0.08 0.51-0.13q-0.23-0.07-0.59-0.03zm-351.7-2.67q0.33-0.01 0.65-0.03 0.3-0.01 0.45-0.09-0.25-0.06-0.56-0.06-0.49 0.02-0.97 0.04c-0.2 0.01-0.39 0.05-0.44 0.1-0.04 0.04 0.4 0.06 0.87 0.04zm323.4-0.8q0.14 0.03 0.27 0.04 0.32 0 0.63-0.02 0.13-0.02 0.19-0.06 0.04-0.02-0.02-0.05c-0.19-0.07-0.97-0.04-1.09 0.04-0.02 0.02 0.02 0.04 0.03 0.05zm-21.18-8.37q0.02 0.03 0.05 0.07 0.09 0.07 0.42 0.1 0.25-0.06 0.24-0.13-0.01-0.03-0.05-0.07-0.09-0.07-0.42-0.1-0.25 0.05-0.24 0.13zm122.96 19.91q-0.09 0.03-0.18 0.06 0.27 0.07 0.47 0.03 0.11-0.02 0.19-0.05-0.28-0.07-0.48-0.04zm-4.15 0.22q0.13 0.02 0.26 0.04 0.24 0.02 0.4-0.07-0.13-0.02-0.26-0.04-0.24-0.02-0.4 0.07zm2.63-0.29q-0.07 0.06 0.29 0.1 0.11-0.03 0.18-0.06 0.09-0.06-0.29-0.1-0.09 0.03-0.18 0.06zm-14.12-1.63q-0.08 0.06 0.29 0.1 0.11-0.03 0.18-0.07 0.09-0.05-0.29-0.09-0.1 0.03-0.18 0.06zm-19.35-10.84q-0.09 0.04-0.19 0.06 0.28 0.07 0.48 0.04 0.11-0.03 0.18-0.06-0.27-0.07-0.47-0.04zm-18.48-5.73q0.24 0.02 0.41-0.07-0.12-0.02-0.26-0.04-0.24-0.02-0.4 0.07 0.13 0.02 0.25 0.04zm-9.77-0.34q-0.09 0.03-0.19 0.05 0.28 0.07 0.48 0.04 0.1-0.03 0.18-0.06-0.27-0.07-0.47-0.03zm-66.3-1.29q-0.09 0.03-0.18 0.05 0.27 0.07 0.47 0.04 0.11-0.03 0.19-0.06-0.28-0.07-0.48-0.03zm-329.86 13.07q-0.13-0.02-0.25-0.04-0.3 0.06-0.15 0.11 0.11 0.02 0.25 0.04 0.3-0.07 0.15-0.11z"/>
	<path class="s0" d="m239.06 8.61q-1.14 0.05-2.29 0.09c-0.41 0.01-0.55 0.07-0.72 0.14-0.14 0.05-0.29 0.06-0.54 0.07q-3.12 0.12-6.23 0.25-0.41-0.04-0.33-0.09 0.06-0.05 0.19-0.06 2.13-0.1 4.27-0.17c0.41-0.01 0.52-0.08 0.73-0.14q0.08-0.03 0.2-0.05 0.15-0.02 0.33-0.02 3.45-0.14 6.89-0.27 0.41 0.03 0.33 0.09-0.06 0.04-0.19 0.06-1.32 0.05-2.64 0.1z"/>
	<path class="s0" d="m659.87 15.69c-0.34 0.02-0.78 0.05-1.15-0.04q-0.25-0.06-0.59-0.05-0.49 0.03-0.99 0.04-0.14 0-0.29-0.03c-0.19-0.02-0.35-0.07-0.55-0.08-0.2-0.01-0.44 0.02-0.65 0.01q-0.41-0.02-0.31-0.09 0.07-0.04 0.21-0.05c1.23-0.06 1.24-0.06 1.59-0.01 0.26 0.05 0.51 0.09 0.89 0.07q0.49-0.03 0.99-0.05c0.46-0.02 0.46-0.01 1.19 0.08q0.28 0.03 0.63 0.01 0.32-0.01 0.57 0.05-0.15 0.08-0.46 0.1c-0.34 0.02-0.66 0.03-1.08 0.04z"/>
	<path class="s0" d="m647.57 15.25q1.27-0.05 2.53-0.1 0.51-0.03 0.86 0.05 0.4 0.07 0.88 0.04 0.31-0.01 0.53 0.06c0.05 0.02 0.04 0.05 0.06 0.07q-1.11 0.05-2.22 0.09-0.14 0-0.27-0.02c-0.18-0.03-0.34-0.08-0.53-0.09-0.42-0.02-0.83 0.03-1.25 0.03q-0.31 0.01-0.53-0.06c-0.05-0.02-0.04-0.05-0.06-0.07z"/>
	<path class="s0" d="m343.19 2.92q1.31-0.05 2.62-0.11 0.4 0.04 0.33 0.09-0.06 0.05-0.19 0.06-2.63 0.11-5.24 0.21-0.4-0.03-0.33-0.09 0.06-0.04 0.19-0.06 1.3-0.05 2.62-0.1z"/>
	<path class="s0" d="m208.38 11.69c-0.39 0-0.8 0.06-1.25 0.01-0.08 0-0.2-0.03-0.19-0.04 0.01-0.02 0.09-0.05 0.17-0.06 0.38-0.04 0.86-0.05 1.05-0.15q0.15-0.08 0.5-0.09c0.25-0.01 0.42-0.01 0.62 0.02 0.25 0.05 0.47 0.12 0.87 0.08 0.01 0.03 0.06 0.05 0.04 0.08-0.02 0.02-0.1 0.04-0.18 0.06q-0.12 0.02-0.27 0.03-0.65 0.03-1.36 0.06z"/>
	<path class="s0" d="m555.89 10.55q0.5-0.02 0.99-0.05c0.26-0.01 0.42 0 0.62 0.03 0.34 0.07 0.36 0.06 1.19 0.07 0.1 0 0.21 0.02 0.27 0.04 0.03 0.01-0.02 0.04-0.06 0.06q-0.1 0.04-0.23 0.04c-0.52 0.01-1.05 0.1-1.57 0q-0.38-0.08-0.9-0.05-0.33 0.02-0.67 0.02c-0.21 0.01-0.43-0.01-0.56-0.05-0.2-0.07-0.08-0.1 0.26-0.09q0.33-0.01 0.66-0.02z"/>
	<path class="s0" d="m677.09 20.73q0.63-0.03 1.26-0.05 0.15 0 0.28 0.02c0.32 0.05 0.27 0.13 0.29 0.2 0.01 0.07-0.73 0.13-1.05 0.08-0.35-0.06-0.66-0.12-1.14-0.08-0.19 0.01-0.41-0.02-0.53-0.06q-0.26-0.1 0.26-0.09 0.3 0 0.63-0.02z"/>
	<path class="s0" d="m464.77 0.56q0.65-0.04 1.3-0.05c0.26 0 0.38 0.05 0.32 0.09q-0.06 0.04-0.19 0.06-1.3 0.05-2.6 0.1-0.4-0.03-0.33-0.09 0.07-0.04 0.2-0.06 0.65-0.03 1.3-0.05z"/>
	<path class="s0" d="m668.72 15.8q0.63-0.03 1.26-0.05c0.23 0 0.4 0.04 0.43 0.08 0.01 0.01-0.1 0.05-0.18 0.05-0.6 0.06-1.25 0.06-1.88 0.09-0.2 0.01-0.41-0.01-0.53-0.06q-0.27-0.09 0.26-0.08 0.32-0.01 0.64-0.03z"/>
	<path class="s0" d="m566.93 10.72q0.33-0.02 0.65-0.02 0.32 0.02 0.42 0.1 0.11 0.07 0.01 0.14c-0.11 0.07-0.22 0.07-0.46 0.02-0.39-0.08-0.41-0.07-1.17-0.06-0.08 0-0.19-0.02-0.26-0.04q-0.16-0.06 0.19-0.11c0.17-0.02 0.41-0.02 0.62-0.03z"/>
	<path class="s0" d="m653.05 15.34q0.48-0.02 0.95-0.03c0.22 0 0.39 0.03 0.41 0.07 0.01 0.02-0.09 0.05-0.17 0.06-0.38 0.04-0.81 0.04-1.22 0.06-0.2 0-0.41-0.02-0.53-0.06-0.18-0.07-0.08-0.1 0.25-0.09q0.15 0 0.31-0.01z"/>
	<path class="s0" d="m603.61 13.6c-0.47 0.02-0.91-0.01-0.88-0.05 0.05-0.05 0.24-0.08 0.44-0.09q0.48-0.03 0.97-0.04 0.31-0.01 0.56 0.06-0.15 0.07-0.45 0.09-0.31 0.02-0.64 0.03z"/>
	<path class="s0" d="m600.54 13.41q0.47-0.03 0.94-0.03c0.22-0.01 0.4 0.03 0.42 0.07 0.01 0.01-0.09 0.05-0.17 0.06-0.38 0.04-0.81 0.04-1.23 0.06-0.19 0-0.4-0.02-0.52-0.06-0.19-0.07-0.08-0.1 0.25-0.09q0.15 0 0.31-0.01z"/>
	<path class="s0" d="m563.14 10.72q0.47-0.02 0.95-0.03c0.22-0.01 0.39 0.03 0.41 0.07 0.01 0.02-0.09 0.05-0.17 0.06-0.38 0.04-0.81 0.04-1.22 0.06-0.2 0-0.41-0.02-0.53-0.06-0.18-0.07-0.08-0.1 0.25-0.09q0.15 0 0.31-0.01z"/>
	<path class="s0" d="m561.39 10.64c0.33-0.02 0.44-0.02 0.54-0.02 0.21-0.01 0.41 0.01 0.53 0.06 0.18 0.06 0.08 0.08-0.25 0.08q-0.63 0.02-1.25 0.05c-0.22 0-0.4-0.04-0.41-0.07-0.01-0.02 0.09-0.06 0.17-0.06 0.28-0.02 0.59-0.04 0.67-0.04z"/>
	<path class="s0" d="m597.72 1.61q-0.33 0.03-0.64 0.03-0.41-0.03-0.31-0.09 0.07-0.05 0.19-0.06 0.65-0.03 1.29-0.05 0.39 0.03 0.3 0.09-0.06 0.04-0.19 0.06-0.31 0.02-0.64 0.02z"/>
	<path class="s0" d="m338.4 3.11q0.31 0 0.56 0.06-0.15 0.07-0.45 0.09-0.15 0.01-0.32 0.01-0.31 0.01-0.55-0.05 0.15-0.08 0.44-0.1 0.16 0 0.32-0.01z"/>
	<path class="s0" d="m666.43 15.8c-0.01-0.04 0.4-0.09 0.77-0.09 0.19 0 0.39 0.02 0.5 0.06q0.25 0.09-0.25 0.08c-0.2 0-0.41 0.03-0.61 0.02q-0.34-0.01-0.41-0.07z"/>
	<path class="s0" d="m568.87 10.9c0-0.01-0.04-0.03-0.02-0.05 0.13-0.08 0.9-0.11 1.1-0.04q0.05 0.03 0.02 0.05-0.07 0.04-0.19 0.06-0.32 0.02-0.64 0.03-0.14-0.01-0.27-0.05z"/>
	<path class="s0" d="m210.76 11.44c-0.79 0.03-0.8 0.03-0.66-0.05q0.19-0.11 0.7-0.11 0.15 0 0.29 0c0.09 0.01 0.23 0.02 0.25 0.04 0.04 0.04-0.07 0.08-0.27 0.1q-0.14 0.02-0.31 0.02z"/>
	<path class="s0" d="m348.27 2.87q-0.36 0.04-0.58-0.03c-0.15-0.05 0.08-0.11 0.49-0.12q0.16-0.01 0.32-0.01 0.16 0.01 0.26 0.04 0.16 0.05-0.17 0.11c-0.09 0.01-0.21 0.01-0.32 0.01z"/>
	<path class="s0" d="m665.04 15.69q0.09-0.03 0.18-0.06 0.38 0.04 0.29 0.09-0.07 0.03-0.18 0.06-0.37-0.04-0.29-0.09z"/>
	<path class="s0" d="m221.5 28.7c0-0.01 0.09-0.04 0.16-0.05 0.14-0.01 0.32 0.01 0.44 0.05 0.16 0.06 0.06 0.1-0.24 0.08-0.21-0.01-0.36-0.04-0.36-0.08z"/>
	<path class="s0" d="m571.58 9.48q0.13 0.02 0.25 0.05-0.17 0.08-0.39 0.06-0.14-0.02-0.26-0.04 0.16-0.08 0.4-0.07z"/>
	<path class="s0" d="m569.27 9.42q0.19-0.03 0.48 0.03-0.09 0.04-0.19 0.06-0.2 0.04-0.47-0.03 0.08-0.03 0.18-0.06z"/>
	<path class="s0" d="m567.5 9.49q0.13 0.02 0.25 0.04-0.17 0.09-0.4 0.07-0.13-0.02-0.26-0.04 0.17-0.09 0.41-0.07z"/>
	<path class="s0" d="m566.19 9.41q0.15 0.05-0.14 0.11-0.14-0.01-0.26-0.04-0.15-0.04 0.15-0.11 0.12 0.02 0.25 0.04z"/>
</svg>